<?xml version="1.0" standalone="no"?><svg xmlns="http://www.w3.org/2000/svg" viewBox="0 0 1440 320"><path fill="#318CE7" fill-opacity="1" d="M0,96L24,90.7C48,85,96,75,144,90.7C192,107,240,149,288,160C336,171,384,149,432,128C480,107,528,85,576,69.3C624,53,672,43,720,74.7C768,107,816,181,864,176C912,171,960,85,1008,53.3C1056,21,1104,43,1152,58.7C1200,75,1248,85,1296,90.7C1344,96,1392,96,1416,96L1440,96L1440,320L1416,320C1392,320,1344,320,1296,320C1248,320,1200,320,1152,320C1104,320,1056,320,1008,320C960,320,912,320,864,320C816,320,768,320,720,320C672,320,624,320,576,320C528,320,480,320,432,320C384,320,336,320,288,320C240,320,192,320,144,320C96,320,48,320,24,320L0,320Z"></path></svg>