<svg xmlns="http://www.w3.org/2000/svg" version="1.1" xmlns:xlink="http://www.w3.org/1999/xlink" xmlns:svgjs="http://svgjs.dev/svgjs" viewBox="0 0 1422 800" opacity="1"><defs><linearGradient x1="50%" y1="0%" x2="50%" y2="100%" id="oooscillate-grad"><stop stop-color="hsl(265, 55%, 30%)" stop-opacity="1" offset="0%"></stop><stop stop-color="hsl(265, 55%, 60%)" stop-opacity="1" offset="100%"></stop></linearGradient></defs><g stroke-width="3" stroke="url(#oooscillate-grad)" fill="none" stroke-linecap="round"><path d="M 0 799 Q 355.5 240 711 400 Q 1066.5 560 1422 799" stroke-dasharray="4 1"></path><path d="M 0 782 Q 355.5 240 711 400 Q 1066.5 560 1422 782" stroke-dasharray="4 2"></path><path d="M 0 765 Q 355.5 240 711 400 Q 1066.5 560 1422 765" stroke-dasharray="1 5"></path><path d="M 0 748 Q 355.5 240 711 400 Q 1066.5 560 1422 748" stroke-dasharray="2 3"></path><path d="M 0 731 Q 355.5 240 711 400 Q 1066.5 560 1422 731" stroke-dasharray="3 5"></path><path d="M 0 714 Q 355.5 240 711 400 Q 1066.5 560 1422 714" stroke-dasharray="3 1"></path><path d="M 0 697 Q 355.5 240 711 400 Q 1066.5 560 1422 697" stroke-dasharray="4 3"></path><path d="M 0 680 Q 355.5 240 711 400 Q 1066.5 560 1422 680" stroke-dasharray="3 1"></path><path d="M 0 663 Q 355.5 240 711 400 Q 1066.5 560 1422 663" stroke-dasharray="3 4"></path><path d="M 0 646 Q 355.5 240 711 400 Q 1066.5 560 1422 646" stroke-dasharray="0 1"></path><path d="M 0 629 Q 355.5 240 711 400 Q 1066.5 560 1422 629" stroke-dasharray="4 3"></path><path d="M 0 612 Q 355.5 240 711 400 Q 1066.5 560 1422 612" stroke-dasharray="4 4"></path><path d="M 0 595 Q 355.5 240 711 400 Q 1066.5 560 1422 595" stroke-dasharray="0 4"></path><path d="M 0 578 Q 355.5 240 711 400 Q 1066.5 560 1422 578" stroke-dasharray="2 1"></path><path d="M 0 561 Q 355.5 240 711 400 Q 1066.5 560 1422 561" stroke-dasharray="1 4"></path><path d="M 0 544 Q 355.5 240 711 400 Q 1066.5 560 1422 544" stroke-dasharray="3 2"></path><path d="M 0 527 Q 355.5 240 711 400 Q 1066.5 560 1422 527" stroke-dasharray="5 1"></path><path d="M 0 510 Q 355.5 240 711 400 Q 1066.5 560 1422 510" stroke-dasharray="2 1"></path><path d="M 0 493 Q 355.5 240 711 400 Q 1066.5 560 1422 493" stroke-dasharray="5 4"></path><path d="M 0 476 Q 355.5 240 711 400 Q 1066.5 560 1422 476" stroke-dasharray="4 2"></path><path d="M 0 459 Q 355.5 240 711 400 Q 1066.5 560 1422 459" stroke-dasharray="0 1"></path><path d="M 0 442 Q 355.5 240 711 400 Q 1066.5 560 1422 442" stroke-dasharray="3 2"></path><path d="M 0 425 Q 355.5 240 711 400 Q 1066.5 560 1422 425" stroke-dasharray="1 2"></path><path d="M 0 408 Q 355.5 240 711 400 Q 1066.5 560 1422 408" stroke-dasharray="4 4"></path><path d="M 0 391 Q 355.5 240 711 400 Q 1066.5 560 1422 391" stroke-dasharray="2 3"></path><path d="M 0 374 Q 355.5 240 711 400 Q 1066.5 560 1422 374" stroke-dasharray="4 4"></path><path d="M 0 357 Q 355.5 240 711 400 Q 1066.5 560 1422 357" stroke-dasharray="5 3"></path><path d="M 0 340 Q 355.5 240 711 400 Q 1066.5 560 1422 340" stroke-dasharray="4 2"></path><path d="M 0 323 Q 355.5 240 711 400 Q 1066.5 560 1422 323" stroke-dasharray="1 5"></path><path d="M 0 306 Q 355.5 240 711 400 Q 1066.5 560 1422 306" stroke-dasharray="2 5"></path><path d="M 0 289 Q 355.5 240 711 400 Q 1066.5 560 1422 289" stroke-dasharray="0 3"></path><path d="M 0 272 Q 355.5 240 711 400 Q 1066.5 560 1422 272" stroke-dasharray="1 3"></path><path d="M 0 255 Q 355.5 240 711 400 Q 1066.5 560 1422 255" stroke-dasharray="1 1"></path><path d="M 0 238 Q 355.5 240 711 400 Q 1066.5 560 1422 238" stroke-dasharray="0 5"></path><path d="M 0 221 Q 355.5 240 711 400 Q 1066.5 560 1422 221" stroke-dasharray="1 2"></path><path d="M 0 204 Q 355.5 240 711 400 Q 1066.5 560 1422 204" stroke-dasharray="1 2"></path><path d="M 0 187 Q 355.5 240 711 400 Q 1066.5 560 1422 187" stroke-dasharray="4 2"></path><path d="M 0 170 Q 355.5 240 711 400 Q 1066.5 560 1422 170" stroke-dasharray="2 1"></path><path d="M 0 153 Q 355.5 240 711 400 Q 1066.5 560 1422 153" stroke-dasharray="2 1"></path><path d="M 0 136 Q 355.5 240 711 400 Q 1066.5 560 1422 136" stroke-dasharray="4 0"></path><path d="M 0 119 Q 355.5 240 711 400 Q 1066.5 560 1422 119" stroke-dasharray="0 3"></path><path d="M 0 102 Q 355.5 240 711 400 Q 1066.5 560 1422 102" stroke-dasharray="1 2"></path><path d="M 0 85 Q 355.5 240 711 400 Q 1066.5 560 1422 85" stroke-dasharray="0 1"></path><path d="M 0 68 Q 355.5 240 711 400 Q 1066.5 560 1422 68" stroke-dasharray="3 3"></path><path d="M 0 51 Q 355.5 240 711 400 Q 1066.5 560 1422 51" stroke-dasharray="3 2"></path><path d="M 0 34 Q 355.5 240 711 400 Q 1066.5 560 1422 34" stroke-dasharray="2 1"></path></g></svg>