<?xml version="1.0" standalone="no"?><svg xmlns="http://www.w3.org/2000/svg" viewBox="0 0 1440 320"><path fill="#318CE7" fill-opacity="1" d="M0,0L30,37.3C60,75,120,149,180,160C240,171,300,117,360,85.3C420,53,480,43,540,85.3C600,128,660,224,720,256C780,288,840,256,900,224C960,192,1020,160,1080,138.7C1140,117,1200,107,1260,106.7C1320,107,1380,117,1410,122.7L1440,128L1440,320L1410,320C1380,320,1320,320,1260,320C1200,320,1140,320,1080,320C1020,320,960,320,900,320C840,320,780,320,720,320C660,320,600,320,540,320C480,320,420,320,360,320C300,320,240,320,180,320C120,320,60,320,30,320L0,320Z"></path></svg>