<svg xmlns="http://www.w3.org/2000/svg" version="1.1" xmlns:xlink="http://www.w3.org/1999/xlink" xmlns:svgjs="http://svgjs.dev/svgjs" viewBox="0 0 800 800"><defs><linearGradient x1="50%" y1="0%" x2="50%" y2="100%" id="wwwhirl-grad"><stop stop-color="hsl(265, 55%, 30%)" stop-opacity="1" offset="45%"></stop><stop stop-color="hsl(265, 55%, 60%)" stop-opacity="1" offset="100%"></stop></linearGradient></defs><g stroke-width="2" stroke="url(#wwwhirl-grad)" fill="none" stroke-linecap="round"><path d="M-95.00002708435048 426.0641923403599C-76.25002656416449 404.97044175515066 -42.50002562782966 322.0016894533276 -5.000024587457631 324.81418953135545C32.499976452914325 327.62668960938333 47.49997686906315 434.7829425822464 84.99997790943516 439.5641927148938C122.4999789498072 444.3454428475412 137.49997936595605 346.9204401446548 174.999980406328 347.7641901680631C212.49998144670002 348.60794019147147 227.49998186284887 441.0829427570289 264.9999829032209 443.614192827254C302.4999839435929 446.1454428974791 317.49998435974163 365.25794065339664 354.9999854001137 359.91419050514367C392.4999864404856 354.57044035689063 407.49998685663445 413.1829419829921 444.99998789700646 417.96419211563955C482.4999889373785 422.74544224828696 497.4999893535273 375.270440931176 534.9999903938993 382.86419114185134C572.4999914342714 390.45794135252663 587.49999185042 460.3204432907397 624.9999928907921 454.4141931268811C662.4999939311641 448.5079429630225 677.499994347313 350.2954402382882 714.9999953876851 354.5141903553301C752.4999964280571 358.7329404723719 767.499996844206 466.7891934702038 804.9999978845777 474.66419368868196C842.4999989249498 482.5391939071601 876.2499998612846 409.4704418799953 895.0000003814707 392.31419140402505 " transform="rotate(206.25, 400, 400)"></path><path d="M-80.00002718838769 425.2743746878747C-61.81820850214672 404.8198286658536 -29.09093486691293 324.3652809792373 7.2727025055689865 327.09255378217347C43.63633987805093 329.8198265851096 58.18179482704372 433.7289203769768 94.54543219952566 438.36528414196823C130.90906957200764 443.00164790695965 145.45452452100045 348.52891801325154 181.8181618934824 349.3470998541324C218.18179926596434 350.1652816950133 232.7272542149571 439.8380114555537 269.09089158743905 442.2925569781963C305.454528959921 444.74710250083876 319.99998390891375 366.31073668839525 356.3636212813957 361.12891836281653C392.7272586538777 355.9471000372379 407.27271360287045 412.7834652504272 443.63635097535234 417.4198290154186C479.99998834783435 422.0561927804101 494.5454432968272 376.0198278668479 530.9090806693091 383.38346443477553C567.272718041791 390.7471010027031 581.8181729907836 458.49255742763694 618.1818103632658 452.76528454147103C654.5454477357478 447.0380116553052 669.0909026847405 351.80164537677496 705.4545400572226 355.8925545811792C741.8181774297045 359.98346378558335 756.3636323786974 464.7652848743901 792.727269751179 472.4016487226113C829.0909071236609 480.0380125708325 861.8181807588948 409.18346515055146 879.9999994451359 392.547101052641 " transform="rotate(200, 400, 400)"></path><path d="M-64.99999677484676 424.4845417766005C-47.386359922550824 404.66920031776755 -15.681813588418109 326.728857246358 19.545460116173786 329.3709027742024C54.772733820765666 332.01294830204677 68.86364330260241 432.6748829129181 104.09091700719429 437.1663603102536C139.3181907117862 441.657837707589 153.40910019362298 350.1373806230593 188.63637389821486 350.92999428141263C223.86364760280674 351.72260793976596 237.95455708464357 438.59306489528956 273.1818307892354 440.9709058703495C308.40910449382733 443.34874684540944 322.50001397566405 367.36351746460474 357.72728768025587 362.3436309617004C392.9545613848477 357.32374445879606 407.0454708666846 412.3839732590732 442.27274457127646 416.87545065640865C477.50001827586834 421.3669280537441 491.5909277577051 376.7691995437308 526.818201462297 383.90272246891067C562.0454751668889 391.0362453940905 576.1363846487255 456.6646563057452 611.3636583533175 451.11636069727194C646.5909320579094 445.56806508879873 660.6818415397462 353.3078352564726 695.9091152443382 357.2709035482392C731.1363889489302 361.2339718400058 745.2272984307667 462.7413610197873 780.4545721353586 470.1390884977516C815.6818458399504 477.5368159757159 847.3863921740831 408.8964731623186 865.0000290263791 392.7799954424678 " transform="rotate(193.75, 400, 400)"></path><path d="M-49.99999687888396 423.6947088653263C-32.954541860533055 404.5185719696815 -2.272722827501383 329.0924335134787 31.81818720920043 331.6492517662313C65.90909724590225 334.20607001898395 79.54546126058298 431.6208454488594 113.6363712972848 435.96743647853896C147.72728133398664 440.3140275082184 161.36364534866743 351.74584323286706 195.4545553853692 352.51288870869286C229.545465422071 353.27993418451865 243.1818294367518 437.34811833502533 277.2727394734536 439.6492547625027C311.3636495101554 441.9503911899801 325.00001352483616 368.4162982408143 359.090923561538 363.55834356058426C393.1818335982398 358.70038888035424 406.8181976129206 411.98448126771916 440.90910764962234 416.3310722973987C475.0000176863242 420.67766332707816 488.636381701005 377.51857122061364 522.7272917377068 384.4219805030458C556.8182017744085 391.3253897854779 570.4545657890892 454.83675518385337 604.5454758257911 449.46743685307285C638.6363858624931 444.09811852229234 652.2727498771736 354.81402513617024 686.3636599138757 358.64925251529917C720.4545699505775 362.48447989442815 734.0909339652583 460.71743716518444 768.1818440019599 467.87652827289185C802.2727540386617 475.0356193805992 832.9545730716934 408.6094811740857 850.0000280900442 393.0128898322946 " transform="rotate(187.5, 400, 400)"></path><path d="M-34.99999698292116 422.9048835834466C-18.522723798515287 404.36795125098996 11.136367933415329 331.45601740999393 44.09091430222708 333.9276083876548C77.04546067103882 336.39919936531567 90.22727921856355 430.5668156141953 123.1818255873753 434.76852027621885C156.13637195618708 438.9702249382423 169.31819050371178 353.35431347206935 202.27273687252358 354.0957907653676C235.22728324133533 354.83726805866587 248.40910178886008 436.1031794041557 281.36364815767183 438.3276112840505C314.3181945264836 440.5520431639453 327.5000130740082 369.4690866464183 360.45455944282 364.7730637888626C393.40910581163183 360.07704093130695 406.59092435915653 411.58499690575974 439.5454707279682 415.7867015677832C472.5000170967801 419.98840622980674 485.6818356443048 378.267950526891 518.6363820131166 384.9412461665754C551.5909283819283 391.6145418062598 564.772746929453 453.0088616913561 597.7272932982647 447.8185206382683C630.6818396670766 442.6281795851804 643.8636582146013 356.3202226452624 676.818204583413 360.02760911175375C709.7727509522249 363.73499557824505 722.9545694997495 458.6935209399761 755.9091158685612 465.61397567742665C788.863662237373 472.5344304148771 818.5227539693035 408.32249681524735 835.0000271537094 393.245791851516 " transform="rotate(181.25, 400, 400)"></path><path d="M-19.99999708695836 422.11507356035594C-4.090905736497518 404.2173457910875 24.54545869433204 333.81961656529825 56.36364139525375 336.20598026786735C88.18182409617543 338.5923439704365 100.90909717654412 429.5128010383203 132.7272798774658 433.5696193326878C164.5454625783875 437.6264376270553 177.27273565875623 354.9627989700607 209.09091835967797 355.6787080808314C240.90910106059965 356.39461719160215 253.63637414096837 434.8582557320751 285.45455684189005 437.00598306438735C317.2727395428118 439.1537103966995 330.0000126231804 370.5218903108114 361.8181953241021 365.98779927593006C393.63637802502376 361.45370824104873 406.36365110539253 411.1855278025893 438.1818338063142 415.24234609695685C470.00001650723596 419.2991643913244 482.7272895876047 379.0173450919575 514.5454722885264 385.46052708889414C546.3636549894479 391.90370908583077 559.0909280698166 451.1809834576479 590.9091107707384 446.1696196822528C622.7272934716601 441.15825590685756 635.4545665520288 357.82643541314366 667.2727492529506 361.40598096699733C699.0909319538724 364.985526520851 711.8182050342409 456.6696199735569 743.6363877351625 463.3514383407505C775.4545704360842 470.033256707944 804.0909348669137 408.0355277151981 820.0000262173746 393.4787091295264 " transform="rotate(175, 400, 400)"></path><path d="M-4.999997190995572 421.32524064908176C10.34091232552025 404.06671744300144 37.95454945524875 336.1831928324189 68.63636848828037 338.4843292598963C99.31818752131204 340.7854656873737 111.59091513452466 428.45876357426164 142.27273416755634 432.3706955009731C172.95455320058798 436.28262742768464 185.2272808138007 356.57126157986846 215.9090998468323 357.26160250811165C246.59091887986392 357.9519434363549 258.8636464930766 433.6133091718109 289.5454655261083 435.6843319565405C320.2272845591399 437.7553547412702 332.5000121723525 371.57467108702093 363.1818312053842 367.2025118748139C393.8636502384158 362.8303526626069 406.1363778516285 410.78603581123537 436.8181968846601 414.6979677379469C467.5000159176918 418.6098996646584 479.77274353090456 379.76671676884035 510.4545625639362 385.9797851230293C541.1363815969677 392.1928534772182 553.4091092101803 449.35308233575614 584.090928243212 444.52069583805365C614.7727472762438 439.68830934035117 627.0454748894563 359.33262529284127 657.727293922488 362.7843299340574C688.4091129555197 366.23603457527344 700.6818405687324 454.6456961189541 731.3636596017639 461.08887811589074C762.0454786347956 467.53206011282737 789.659115764524 407.7485357269652 805.0000252810398 393.7116035193533 " transform="rotate(168.75, 400, 400)"></path><path d="M10.00000270496723 420.5354229965966C24.77273038753802 403.91610435370444 51.363640216165464 338.5467843583287 80.90909558130704 340.7626935107143C110.45455094644862 342.97860266309993 122.27273309250526 427.404741368992 151.81818845764684 431.17178692804754C181.3636438227884 434.93883248710307 193.18182596884506 358.1797394484653 222.72728133398664 358.84451219418094C252.27273669912825 359.50928493989665 264.0909188451849 432.3683778703358 293.6363742103265 434.36269610748286C323.18182957546804 436.3570143446299 335.0000117215247 372.6274671220195 364.54546708666624 368.4172397324868C394.09092245180784 364.20701234295416 405.9091045978645 410.3865590786704 435.45455996300603 414.153604637726C465.0000153281476 417.92065019678154 476.8181974742042 380.5161037045123 506.36365283934583 386.49905841595347C535.9091082044873 392.4820131273946 547.7272903505441 447.5251964726534 577.2727457156857 442.8717872526436C606.8182010808273 438.21837803263384 618.6363832268839 360.838830431328 648.1818385920255 364.16269415990644C677.7272939571671 367.48655788848487 689.5454761032238 452.6217875231403 719.0909314683653 458.8263331498201C748.6363868335068 465.0308787764998 775.2272966621342 407.4615589975214 790.000024344705 393.94451316796915 " transform="rotate(162.5, 400, 400)"></path><path d="M25.00000260093003 419.7455977147169C39.20454844955579 403.7654836350129 64.77273097708218 340.9103682548439 93.18182267433369 343.0410501321378C121.5909143715852 345.17173200943165 132.9545510504858 426.35071153432784 161.36364274773734 429.97287072572743C189.77273444498886 433.595029917127 201.1363711238895 359.7882096876675 229.54546282114097 360.4274142508557C257.95455451839257 361.06661881404386 269.3181911972931 431.12343893946615 297.7272828945447 433.04105262903056C326.1363745917962 434.9586663185951 337.50001127069675 373.68025552762356 365.9091029679483 369.6319599607652C394.3181946651998 365.5836643939069 405.6818313441005 409.987074716711 434.09092304135197 413.6092339081106C462.50001473860345 417.2313930995101 473.8636514175041 381.2654830107897 502.2727431147556 387.01832407948314C530.6818348120071 392.7711651481766 542.0454714909077 445.69730298015617 570.4545631881592 441.222871037839C598.8636548854108 436.7484390955219 610.2272915643114 362.3450279404202 638.636383261563 365.54105075636096C667.0454749588146 368.73707357230177 678.4091116377151 450.59787129793204 706.8182033349666 456.5637805543549C735.2272950322181 462.52968981077765 760.7954775597445 407.1745746386831 775.0000234083702 394.1774151871905 " transform="rotate(156.25, 400, 400)"></path><path d="M40.00000249689283 418.95578769162626C53.636366511573556 403.61487817511045 78.18182173799889 343.2739674101482 105.45454976736033 345.3194220123503C132.7272777967218 347.36487661455243 143.63636900846637 425.2966969584528 170.90909703782785 428.7739697821964C198.1818250671893 432.25124260594 209.09091627893392 361.39669518565887 236.36364430829536 362.0103315663195C263.6363723376568 362.62396794698014 274.54546354940146 429.8785152673855 301.8181915787629 431.71942440936743C329.09091960812435 433.56033355134934 340.0000108198689 374.73305919201664 367.2727388492304 370.84669544783264C394.5454668785918 366.96033170364865 405.45455809033643 409.5876056135406 432.72728611969785 413.06487843728416C460.0000141490593 416.54215126102775 470.909105360804 382.01487757585613 498.18183339016537 387.53760500180186C525.4545614195268 393.06033242774754 536.3636526312714 443.869424746448 563.6363806606329 439.5739700818235C590.9091086899945 435.27851541719906 601.8181999017389 363.8512407083014 629.0909279311005 366.9194226116046C656.363655960462 369.98760451490773 667.2727471722066 448.5739703315128 694.5454752015679 454.3012432176787C721.8182032309294 460.0285161038446 746.3636584573547 406.8876055386338 760.0000224720354 394.41033246520095 " transform="rotate(150, 400, 400)"></path><path d="M55.000002392855635 418.16596240974656C68.06818457359132 403.4642574564189 91.5909124989156 345.63755130666345 117.72727686038701 347.59777863377377C143.86364122185842 349.55800596088415 154.31818696644694 424.2426671237887 180.45455132791835 427.5750535798763C206.59091568938973 430.9074400359639 217.04546143397835 363.00516542486116 243.18182579544973 363.59323362299426C269.3181901569211 364.18130182112736 279.7727359015097 428.6335763365159 305.90910026298116 430.3977809309152C332.0454646244525 432.1619855253145 342.50001036904104 375.78584759762066 368.63637473051244 372.061415676111C394.77273909198385 368.33698375460136 405.22728483657244 409.18812125158115 431.3636491980438 412.52050770766874C457.50001355951525 415.85289416375633 467.95455930410384 382.76425688213357 494.0909236655752 388.05687066533153C520.2272880270465 393.3494844485295 530.6818337716352 442.04153125395067 556.8181981331065 437.92505386701896C582.954562494578 433.8085764800872 593.4091082391666 365.3574382173936 619.5454726006379 368.2977792080591C645.6818369621094 371.2381201987247 656.136382706698 446.5500541063045 682.2727470681692 452.0386906222135C708.4091114296406 457.5273271381225 731.9318393549648 406.60062117979544 745.0000215357006 394.6432344844223 " transform="rotate(143.75, 400, 400)"></path><path d="M70.00000228881842 417.3761218690778C82.50000263560909 403.31362147893833 105.00000325983231 348.0011199443896 130.00000395341365 349.8761199964082C155.00000464699497 351.7511200484268 165.00000492442751 423.18862203033547 190.00000561800886 426.3761221187671C215.0000063115902 429.5636222071987 225.00000658902275 364.6136204052744 250.00000728260406 365.17612042087995C275.00000797618543 365.7386204364856 285.000008253618 427.38862214685713 310.0000089471993 429.0761221936739C335.00000964078066 430.76362224049063 345.00000991821315 376.8386207444357 370.0000106117945 373.2761206456003C395.00001130537584 369.713620546765 405.0000115828084 408.7886216308326 430.0000122763897 411.97612171926426C455.000012969971 415.16362180769585 465.0000132474036 383.5136209296219 490.00001394098496 388.5761210700721C515.0000146345662 393.63862121052233 525.0000149119987 440.21362250266435 550.0000156055801 436.2761223934253C575.0000162991615 432.3386222841862 585.000016576594 366.8636204676967 610.0000172701755 369.67612054572464C635.0000179637568 372.4886206237525 645.0000182411893 444.5261226223071 670.0000189347705 449.77612276795924C695.0000196283519 455.0261229136113 717.5000202525752 406.31362156216807 730.0000205993658 394.87612124485463 " transform="rotate(137.5, 400, 400)"></path><path d="M85.00000218478122 416.5863118459872C96.93182069762686 403.1630160190358 118.40909402074902 350.3647190996939 142.2727310464403 352.15449187662074C166.13636807213157 353.9442646535476 175.68182288240808 422.1346074544604 199.54545990809936 425.177221175236C223.40909693379064 428.21983489601166 232.95455174406717 366.22210590326574 256.8181887697584 366.75903773634377C280.68182579544975 367.29596956942186 290.22728060572626 426.14369847477656 314.09091763141754 427.7544939740107C337.9545546571088 429.36528947324484 347.50000946738527 377.89142440882875 371.3636464930766 374.4908561326678C395.2272835187679 371.09028785650673 404.7727383290444 408.38915252766225 428.63637535473566 411.43176624843784C452.50001238042694 414.4743799692135 462.04546719070345 384.2630154946884 485.9091042163947 389.0954019923908C509.772741242086 393.9277884900933 519.3181960523625 438.38574426895616 543.1818330780538 434.6272214374098C567.0454701037452 430.8686986058634 576.5909249140216 368.36983323557797 600.4545619397129 371.05449240096823C624.3181989654042 373.7391515663585 633.8636537756807 442.5022216558879 657.727290801372 447.5135854312831C681.5909278270632 452.52494920667823 703.0682011501854 406.0266524621188 715.000019663031 395.10903852286503 " transform="rotate(131.25, 400, 400)"></path><path d="M100.00000208074403 415.79648274941025C111.36363875964463 403.0123914856471 131.81818478166574 352.72829918151183 154.54545813946694 354.43284468334696C177.27273149726818 356.137390185182 186.36364084038865 421.080573805099 209.09091419818986 423.97830115821864C231.81818755599107 426.8760285113383 240.90909689911157 367.83057232777077 263.6363702569128 368.34193597832126C286.3636436147141 368.8532996288718 295.45455295783455 424.8987557292096 318.18182631563576 426.4328466808612C340.90909967343697 427.9669376325128 350.00000901655744 378.94420899973557 372.72728237435865 375.70557254624885C395.45455573215986 372.4669360927622 404.54546507528033 407.9896643510055 427.27273843308154 410.88739170412515C450.0000117908828 413.7851190572448 459.09092113400334 385.0123909862685 481.8181944918045 389.6146638412232C504.54546784960564 394.216936696178 513.6363771927262 436.55784696176164 536.3636505505274 432.9783014079079C559.0909239083287 429.39875585405423 568.1818332514492 369.87602692997285 590.9091066092504 372.4328451827255C613.6363799670517 374.9896634354781 622.7272893101721 440.47830161598233 645.4545626679733 445.2510290211206C668.1818360257744 450.02375642625884 688.6363820477956 405.7396642885832 700.0000187266962 395.3419367273891 " transform="rotate(125, 400, 400)"></path><path d="M115.00000197670683 415.0066612822278C125.7954568216624 402.86177458165275 145.22727554258245 355.09188689272435 166.8181852324936 356.71120511946765C188.40909492240476 358.330523346211 197.04545879836922 420.02654778513215 218.63636848828037 422.7793887705958C240.2272781781915 425.5322297560595 248.86364205415603 369.4390463816703 270.4545517440672 369.9248418496933C292.0454614339783 370.4106373177163 300.68182530994284 423.6538206130372 322.272734999854 425.1112070171062C343.8636446897651 426.56859342117525 352.50000856572956 379.99700122003685 374.0909182556407 376.9202965892245C395.6818279455519 373.84359195841216 404.31819182151634 407.59018380374334 425.9091015114275 410.343024789207C447.5000112013387 413.09586577467064 456.1363750773031 385.7617741072431 477.72728476721426 390.13393331945014C499.3181944571254 394.50609253165715 507.95455833308984 434.72995728396165 529.545468023001 431.3293890078006C551.1363777129122 427.92882073163963 559.7727415888767 371.3822282537623 581.363651278788 373.81120559387733C602.9545609686991 376.24018293399234 611.5909248446635 438.45438920547133 633.1818345345746 442.98848024035266C654.7727442244857 447.522571275234 674.2045629454058 405.4526837444421 685.0000177903614 395.5748425613078 " transform="rotate(118.75, 400, 400)"></path><path d="M130.00000187266963 414.2168283709536C140.22727488368017 402.7111462335667 158.63636630349916 357.455463159845 179.09091232552026 358.9895541114966C199.54545834754134 360.5236450631482 207.7272767563498 418.9725103210735 228.18182277837087 421.58046493888116C248.63636880039198 424.1884195566888 256.81818720920046 371.047508991478 277.27273323122154 371.5077362769735C297.7272792532426 371.967963562469 305.90909766205107 422.408874052773 326.36364368407214 423.78955590925943C346.8181897060933 425.17023776574587 355.0000081149017 381.04978199624634 375.45455413692275 378.13500918810837C395.9091001589439 375.22023637997034 404.09091856775234 407.19069181238933 424.5454645897734 409.79864643019704C445.0000106117945 412.4066010480047 453.181829020603 386.51114578412603 473.6363750426241 390.65319135358527C494.09092106464516 394.7952369230445 502.27273947345356 432.90205616206987 522.7272854954747 429.6804651636015C543.1818315174958 426.45887416513324 551.3636499263042 372.88841813345994 571.8181959483254 375.1895545609373C592.2727419703465 377.4906909884147 600.4545603791549 436.4304653508685 620.9091064011759 440.72592001549293C641.363652423197 445.02137468011733 659.772743843016 405.16569175620924 670.0000168540265 395.8077369511346 " transform="rotate(112.5, 400, 400)"></path><path d="M144.99998650984335 413.4270221625602C154.65907768690886 402.5605445883615 172.0454418056268 359.8190661298466 191.36362415975785 361.2679298064064C210.6818065138889 362.71679348296624 218.4090794555413 417.9184995598957 237.7272618096723 420.3815678100474C257.0454441638034 422.8446360601991 264.7727171054558 372.65599830416664 284.0908994595868 373.0906574071346C303.4090818137179 373.5253165101026 311.1363547553703 421.1639541953897 330.4545371095013 422.4679315042935C349.77271946363237 423.7719088131974 357.49999240528473 382.10258947533674 376.8181747594158 379.3497484898731C396.1363571135468 376.5969075044094 403.8636300551992 406.7912265239162 423.1818124093303 409.25429477406794C442.49999476346136 411.7173630242196 450.2272677051137 387.26054416388973 469.5454500592448 391.17247609060126C488.8636324133758 395.0844080173128 496.59090535502816 431.07418174305894 515.9090877091592 428.0315680222833C535.2272700632902 424.98895430150765 542.9545430049427 374.39463471603847 562.2727253590738 376.5679302308782C581.5909077132048 378.74122574571794 589.3181806548572 434.40656819914653 608.6363630089882 438.463386493514C627.9545453631192 442.52020478788154 645.3409094818371 404.87872647085726 655.0000006589028 396.0406580438423 " transform="rotate(106.25, 400, 400)"></path><path d="M159.99998640580617 412.6371854365887C169.09089574892664 402.40991242557817 185.45453256654355 362.18263858227004 203.6363512527845 363.5462749837381C221.81816993902547 364.90991138520616 229.09089741352187 416.8644582811398 247.27271609976282 419.1826401636355C265.4545347860038 421.5008220461312 272.7272622605002 374.26445709927714 290.9090809467412 374.6735480197176C309.0908996329822 375.082638940158 316.3636271074786 419.91900382042826 334.5454457937195 421.1462765817495C352.72726447996047 422.37354934307075 359.99999195445685 383.15536643684896 378.18181064069785 380.56445727405963C396.36362932693885 377.9735481112703 403.6363568014352 406.39173071786496 421.81817548767617 408.70991260036067C439.9999941739172 411.02809448285643 447.2727216484136 388.0099120260753 465.45454033465455 391.69173031003913C483.6363590208955 395.3735485940029 490.9090864953918 429.24627680646984 509.0909051816329 426.3826403633869C527.2727238678739 423.51900392030393 534.5454513423703 375.9008207810388 552.7272700286113 377.94627538324096C570.9090887148523 379.99172998544304 578.1818161893486 432.3826405298464 596.3636348755895 436.200822453957C614.5454535618305 440.0190043780676 630.9090903794474 404.5917306679271 639.999999722568 396.27354861897186 " transform="rotate(100, 400, 400)"></path><path d="M174.99998630176896 411.847360154709C183.52271381094442 402.25929170688664 198.86362332746023 364.54622247878524 215.90907834581117 365.8246316051616C232.95453336416205 367.1030407315379 239.77271537150244 415.8104284464756 256.8181703898533 417.9837239613154C273.86362540820426 420.1570194761551 280.68180741554465 375.8729273384794 297.72726243389553 376.2564500763923C314.7727174522464 376.6399728143052 321.5908994595868 418.67406488955857 338.63635447793774 419.8246331032973C355.6818094962887 420.97520131703595 362.499991503629 384.20815484245304 379.5454465219799 381.77917750233803C396.59090154033083 379.350200162223 403.40908354767123 405.9922463559055 420.4545385660221 408.16554187074524C437.49999358437304 410.33883738558495 444.31817559171344 388.75929133235275 461.3636306100643 392.2109959735688C478.4090856284152 395.66270061478485 485.22726763575554 427.4183833139726 502.2727226541065 424.7337241485823C519.3181776724575 422.04906498319207 526.1363596797978 377.407018290131 543.1818146981489 379.3246319796955C560.2272697164997 381.24224566926 567.0454517238401 430.35872430463814 584.0909067421909 433.9382698584918C601.1363617605418 437.5178154123455 616.4772712770576 404.3047463090887 624.999998786233 396.5064506381932 " transform="rotate(93.75, 400, 400)"></path><path d="M189.99998619773174 411.05753868752663C197.95453187296218 402.1086748028924 212.27271408837697 366.90981018999776 228.1818054388378 368.1029920412823C244.09089678929865 369.29617389256686 250.454533329483 414.75640242650877 266.3636246799438 416.78481157369254C282.2727160304047 418.8132207208763 288.63635257058905 377.481401392379 304.5454439210499 377.8393559477644C320.45453527151074 378.1973105031497 326.81817181169515 417.4291297733862 342.72726316215596 418.5029934395423C358.63635451261683 419.5768571056984 364.99999105280114 385.2609470627543 380.909082403262 382.9939015453137C396.8181737537228 380.726856027873 403.18181029390723 405.5927658086433 419.09090164436805 407.6211749558271C434.9999929948289 409.64958410301085 441.3636295350133 389.5086744533274 457.27272088547414 392.73026545179573C473.1818122359349 395.951856450264 479.54544877611926 425.5904936361726 495.4545401265801 423.08481174847503C511.363631477041 420.5791298607774 517.7272680172254 378.91321961392043 533.6363593676863 380.7029923908473C549.5454507181471 382.49276516777417 555.9090872583314 428.3348118941271 571.8181786087922 431.6757210777239C587.727269959253 435.01663026132064 602.0454521746678 404.0177657649477 609.9999978498983 396.73935647211187 " transform="rotate(87.5, 400, 400)"></path><path d="M204.99998609369456 410.2677191276928C212.38634993497993 401.95805980624675 225.68180484929366 369.27339980855885 240.45453253186446 370.38135438475166C255.22726021443526 371.48930896094447 261.1363512874636 413.70237831389056 275.90907897003433 415.58590109341833C290.68180665260513 417.4694238729461 296.59089772563345 379.0898773536272 311.36362540820426 379.422263726485C326.13635309077506 379.7546500993428 332.0454441638034 416.1841965645624 346.8181718463742 417.18135568313596C361.590899528945 418.17851480170947 367.4999906019733 386.3137411904043 382.27271828454406 384.2086274956379C397.04544596711486 382.1035138008716 402.9545370401432 405.19328716872974 417.7272647227139 407.0768099482575C432.49999240528473 408.9603327277853 438.40908347831305 390.25805948165066 453.18181116088385 393.24953683737124C467.9545388434546 396.24101419309187 473.863629916483 423.76260586572124 488.6363575990538 421.4359012557163C503.4090852816246 419.10919664571145 509.3181763546529 380.41942284505853 524.0909040372237 382.08135470934775C538.8636317197945 383.74328657363696 544.7727227928228 426.31090139096466 559.5454504753936 429.4131742043046C574.3181781579643 432.5154470176444 587.613633072278 403.73078712815527 594.9999969135635 396.9722642133791 " transform="rotate(81.25, 400, 400)"></path><path d="M219.99998598965735 409.47789003111586C226.81816799699772 401.80743527285796 239.0908956102104 371.63697989037684 252.7272596248911 372.6597071914779C266.36362363957187 373.6824344925789 271.8181692454441 412.64834466452913 285.4545332601249 414.3869810764009C299.09089727480557 416.1256174882727 304.5454428806779 380.6983437781322 318.1818068953586 381.0051619684625C331.8181709100393 381.31198015879284 337.27271651591167 414.9392538189955 350.9090805305924 415.85970838998645C364.5454445452731 416.7801629609774 369.9999901511454 387.36652578131105 383.6363541658261 385.42334390921906C397.27271818050684 383.48016203712706 402.7272637863791 404.79379899207305 416.36362780105986 406.5324354039448C429.9999918157406 408.27107181581664 435.45453742161294 391.00743497323083 449.0909014362936 393.76879868620364C462.72726545097436 396.5301623991765 468.18181105684664 421.9347085585267 481.8181750715274 419.7869812262145C495.4545390862082 417.63925389390226 500.9090846920804 381.9256165394535 514.5454487067611 383.459707491105C528.1818127214419 384.9937984427566 533.6363583273142 424.2869813510591 547.272722341995 427.1506177941421C560.9090863566756 430.01425423722503 573.1818139698883 403.44379895461964 579.9999959772287 397.2051624179032 " transform="rotate(75, 400, 400)"></path><path d="M234.99998588562016 408.68806474923616C241.2499860590155 401.65681455416643 252.49998637112708 374.00056378689203 264.99998671791775 374.93806381290136C277.4999870647084 375.8755638389107 282.49998720342467 411.594314829865 294.99998755021534 413.1880648740808C307.499987897006 414.7818149182966 312.4999880357223 382.30681401733443 324.999988382513 382.58806402513727C337.49998872930365 382.86931403294005 342.49998886801995 413.69431488812586 354.9999892148106 414.5380649115342C367.4999895616013 415.38181493494255 372.49998970031754 388.4193141869151 384.9999900471082 386.63806413749745C397.4999903938989 384.8568140880798 402.49999053261513 404.39431463011357 414.9999908794058 405.9880646743294C427.49999122619647 407.5818147185452 432.4999913649127 391.7568142795082 444.9999917117034 394.2880643497333C457.49999205849406 396.81931441995846 462.4999921972103 420.10681506602947 474.999992544001 418.13806501140994C487.4999928907917 416.1693149567904 492.49999302950795 383.4318140485456 504.9999933762987 384.8380640875596C517.4999937230893 386.2443141265735 522.4999938618056 422.26306512585086 534.9999942085963 424.8880651986769C547.4999945553868 427.5130652715029 558.7499948674986 403.15681459578127 564.9999950408939 397.4380644371246 " transform="rotate(68.75, 400, 400)"></path><path d="M249.99998578158295 407.89823946735646C255.68180412103325 401.5061938354749 265.9090771320438 376.3641476834073 277.2727138109444 377.21642043432485C288.63635048984503 378.0686931852424 293.18180516140524 410.54028499520086 304.5454418403059 411.9891486717607C315.90907851920645 413.4380123483205 320.4545331907667 383.9152842565367 331.8181698696674 384.170966081812C343.181806548568 384.4266479070873 347.7272612201282 412.44937595725617 359.09089789902885 413.21642143308196C370.4545345779294 413.98346690890776 374.99998924948966 389.47210259251915 386.36362592839026 387.8527843657758C397.72726260729087 386.2334661390325 402.27271727885113 403.99483026815415 413.6363539577517 405.44369394471397C424.99999063665234 406.8925576212738 429.5454453082126 392.5061935857856 440.90908198711315 394.80733001326297C452.27271866601376 397.10846644074036 456.818173337574 418.2789215735322 468.1818100164746 416.4891487966053C479.5454466953753 414.6993760196785 484.09090136693555 384.9380115576378 495.45453804583616 386.2164206840141C506.81817472473676 387.49482981039046 511.363629396297 420.23914890064253 522.7272660751976 422.6255126032117C534.0909027540981 425.0118763057808 544.3181757651087 402.86983023694296 549.999994104559 397.6709664563459 " transform="rotate(62.5, 400, 400)"></path><path d="M264.99998567754574 407.1084180001741C270.113622183051 401.35557693148064 279.3181678929605 378.7277353946198 289.5454409039711 379.4947808704456C299.77271391498164 380.2618263462714 303.8636231193858 409.486258975234 314.09089613039635 410.79023628413785C324.31816914140694 412.0942135930417 328.40907834581117 385.5237583104363 338.6363513568217 385.75387195318405C348.86362436783224 385.98398559593176 352.95453357223647 411.2044408410838 363.181806583247 411.894781769327C373.4090795942576 412.5851226975702 377.4999887986618 390.52489481282043 387.7272618096723 389.06750840875145C397.95453482068285 387.61012200468247 402.04544402508714 403.59534972089193 412.2727170360977 404.89932702979576C422.4999900471082 406.20330433869964 426.59089925151244 393.2555767067603 436.818172262523 395.3265994914899C447.0454452735335 397.3976222762195 451.13635447793774 416.45103189573217 461.3636274889483 414.840236396498C471.5909004999588 413.2294408972639 475.68180970436305 386.44421288142723 485.90908271537364 387.5947810951659C496.1363557263842 388.7453493089046 500.2272649307884 418.2152364901315 510.4545379417989 420.3629638224437C520.6818109528094 422.51069115475593 529.886356662719 402.5828496928019 534.9999931682241 397.9038722902646 " transform="rotate(56.25, 400, 400)"></path><path d="M280.0000008322976 406.318594625643C284.54545550385785 401.20495812013775 292.7272739126663 381.0913211984836 301.8181832557868 381.7731393992177C310.90909259890725 382.45495759995174 314.54545633615544 408.4322310479185 323.63636567927597 409.5913219891664C332.72727502239644 410.7504129304142 336.36363875964463 387.1322304569872 345.4545481027651 387.33677591720743C354.54545744588563 387.5413213774276 358.1818211831338 409.95950381756273 367.2727305262543 410.57314019822337C376.36363986937477 411.186776578884 380.00000360662295 391.57768512577314 389.0909129497435 390.2822305443785C398.18182229286396 388.98677596298376 401.81818603011214 403.1958672662811 410.9090953732326 404.35495820752897C420.00000471635315 405.51404914877685 423.63636845360134 394.0049579203863 432.7272777967218 395.8458670623682C441.8181871398423 397.6867762043501 445.45455087709047 414.62314031058355 454.545460220211 413.1913220890421C463.63636956333147 411.7595038675006 467.27273330057966 387.95041229786807 476.3636426437002 388.9731395989691C485.45455198682066 389.99586690007015 489.09091572406885 416.19132217227184 498.18182506718927 418.10041313432714C507.2727344103098 420.00950409638244 515.4545528191182 402.2958672413122 520.0000074906785 398.13677621683456 " transform="rotate(50, 400, 400)"></path><path d="M295.0000007282604 405.5287674364147C298.97727356587563 401.0543354940976 306.136364673583 383.45490318765025 314.09091034881345 384.0514941132925C322.04545602404386 384.6480850389348 325.227274294136 407.37819930590575 333.1818199693664 408.39240387949764C341.1363656445969 409.4066084530895 344.31818391468903 388.74069878884086 352.2727295899195 388.91967606653355C360.2272752651499 389.09865334422625 363.4090935352421 408.71456297934446 371.3636392104725 409.2514948124225C379.318184885703 409.7884266455006 382.50000315579507 392.63047162402853 390.45454883102553 391.4969488653082C398.40909450625594 390.3634261065879 401.59091277634815 402.796380996973 409.54545845157855 403.8105855705649C417.500004126809 404.8247901441568 420.68182239690117 394.75433531931503 428.63636807213163 396.36513081854923C436.590913747362 397.9759263177834 439.77273201745413 412.79524491073767 447.7272776926846 411.54240396688886C455.68182336791506 410.2895630230401 458.8636416380072 389.4566078996116 466.8181873132377 390.351494288075C474.7727329884681 391.2463806765384 477.95455125856023 414.16740403971494 485.90909693379064 415.8378586315133C493.86364260902104 417.5083132233117 501.02273371672845 402.0088809751252 505.00000655434366 398.36967632870727 " transform="rotate(43.75, 400, 400)"></path><path d="M310.0000006242232 404.7389440618836C313.4090916278934 400.90371668275463 319.54545543449973 385.8184889915141 326.36363744184007 386.3298526420646C333.18181944918047 386.8412162926152 335.9090922521166 406.3241713785903 342.727274259457 407.19348958452616C349.5454562667973 408.06280779046205 352.2727290697335 390.3491709353918 359.0909110770738 390.50258003055694C365.90909308441417 390.6559891257221 368.6363658873504 407.4696259558234 375.45454789469073 407.9298532413189C382.2727299020311 408.39008052681436 385.00000270496724 393.68326193698124 391.8181847123076 392.7116710009352C398.636366719648 391.7400800648892 401.3636395225841 402.3968985423622 408.1818215299245 403.2662167482981C415.00000353726483 404.135534954234 417.727276340201 395.5037165329411 424.54545834754134 396.88439838942753C431.3636403548817 398.26508024591396 434.09091315781785 410.96735332558904 440.9090951651582 409.89348965943293C447.7272771724986 408.8196259932768 450.4545499754347 390.9628073160524 457.2727319827751 391.7298527918782C464.0909139901155 392.496898267704 466.8181867930516 412.14348972185525 473.636368800392 413.57530794339675C480.45455080773235 415.0071261649382 486.59091461433866 401.7218985236355 490.00000561800886 398.6025802552773 " transform="rotate(37.5, 400, 400)"></path><path d="M325.000000520186 403.94912068735255C327.84090968991114 400.75309787141174 332.95454619541647 388.18207479537796 338.63636453486674 388.60821117083674C344.318182874317 389.0343475462955 346.59091021009715 405.27014345127475 352.2727285495475 405.9945752895547C357.95454688899775 406.7190071278346 360.2272742247779 391.9576430819427 365.9090925642282 392.08548399458033C371.5909109036785 392.21332490721795 373.8636382394586 406.2246889323024 379.54545657890895 406.60821167021527C385.2272749183592 406.9917344081282 387.50000225413936 394.7360522499339 393.1818205935897 393.92639313656224C398.86363893303997 393.11673402319053 401.1363662688201 401.9974160877514 406.81818460827037 402.7218479260313C412.5000029477207 403.4462797643112 414.77273028350083 396.2530977465671 420.4545486229511 397.40366596030583C426.13636696240144 398.5542341740445 428.40909429818157 409.1394617404404 434.09091263763185 408.244575351977C439.7727309770822 407.3496889635136 442.0454583128623 392.4690067324932 447.72727665231264 393.1082112956814C453.4090949917629 393.74741585886954 455.68182232754305 410.1195754039956 461.3636406669933 411.31275725528013C467.0454590064436 412.5059391065647 472.15909551194886 401.4349160721458 475.00000468167406 398.8354841818473 " transform="rotate(31.25, 400, 400)"></path><path d="M339.9999966014515 403.15929540547285C342.27272393723166 400.6024771527202 346.3636331416359 390.5456586918932 350.90908781319615 390.8865677922602C355.45454248475636 391.22747689262724 357.27272435338045 404.21611361661064 361.8181790249407 404.7956590872345C366.363633696501 405.37520455785847 368.181815565125 393.56611332114494 372.7272702366853 393.6683860512551C377.27272490824555 393.77065878136517 379.09090677686964 404.97975000143276 383.63636144842985 405.2865681917631C388.1818161199901 405.5933863820934 389.9999979886142 395.7888406555379 394.5454526601745 395.1411133648406C399.0909073317347 394.49338607414325 400.90908920035884 401.5979317257919 405.45454387191904 402.17747719641585C409.9999985434793 402.7570226670398 411.8181804121034 397.0024770528445 416.36363508366367 397.92293162383544C420.9090897552239 398.8433861948264 422.72727162384797 407.31156824794317 427.27272629540823 406.5956591371724C431.8181809669685 405.87975002640167 433.63636283559254 393.9752042415854 438.1818175071528 394.4865678921359C442.72727217871306 394.99793154268644 444.54545404733716 408.0956591787873 449.09090871889737 409.05020465981494C453.63636339045763 410.0047501408426 457.72727259486186 401.14793171330746 459.999999930642 399.0683862010686 " transform="rotate(25, 400, 400)"></path><path d="M354.9999964974144 402.3694729846161C356.70454199924944 400.45185929505163 359.77272390255257 392.90924544943135 363.18181490622277 393.16492727470666C366.59090590989297 393.4206090999819 367.954542311361 403.1620866429694 371.3636333150312 403.59674574593737C374.7727243187014 404.03140484890537 376.1363607201695 395.1745864213702 379.5454517238396 395.2512909689528C382.9545427275098 395.32799551653534 384.31817912897793 403.734813931586 387.7272701326481 403.9649275743338C391.13636113631827 404.1950412170815 392.4999975377864 396.84163192216494 395.9090885414565 396.3558364541419C399.3181795451267 395.8700409861189 400.6818159465948 401.19845022485543 404.090906950265 401.6331093278234C407.4999979539351 402.0677684307913 408.86363435540324 397.75185922014487 412.27272535907343 398.44220014838805C415.6818163627436 399.1325410766313 417.04545276421163 405.48367761646887 420.45454376788183 404.9467457833908C423.86363477155203 404.40981395031275 425.2272711730201 395.4814046117005 428.6363621766903 395.8649273496134C432.0454531803605 396.2484500875263 433.40908958182854 406.07174581460197 436.81818058549874 406.7876549253727C440.22727158916894 407.5035640361434 443.29545349247206 400.86095021549204 444.99999899430713 399.30129108131297 " transform="rotate(18.75, 400, 400)"></path><path d="M370.0000002080744 401.57964865641077C371.13636387596443 400.3012395300344 373.1818184781666 395.2728302996209 375.4545458139467 395.4432848498044C377.7272731497268 395.61373939998794 378.63636408403886 402.10805776197964 380.909091419819 402.3978304972916C383.1818187555991 402.6876032326036 384.09090968991114 396.7830576142468 386.3636370256913 396.83419397930186C388.6363643614714 396.88533034435693 389.5454552957834 402.4898759543907 391.81818263156356 402.64328504955586C394.0909099673437 402.796694144721 395.00000090165577 397.8944212814433 397.2727282374359 397.57055763609463C399.545455573216 397.24669399074594 400.45454650752805 400.79896681657027 402.7272738433081 401.0887395518822C405.00000117908826 401.3785122871942 405.90909211340033 398.50123948009656 408.18181944918047 398.96146676559204C410.4545467849606 399.4216940510875 411.3636377192726 403.6557850776459 413.63636505505275 403.29783052226054C415.9090923908329 402.93987596687515 416.8181833251449 396.987603074467 419.09091066092503 397.24328489974226C421.36363799670517 397.49896672501757 422.27272893101724 404.04783054306796 424.5454562667973 404.52510328358176C426.81818360257745 405.0023760240956 428.8636382047796 400.57396681032805 430.0000018726696 399.5341940542086 " transform="rotate(12.5, 400, 400)"></path><path d="M385.0000001040372 400.7898252818797C385.5681819379822 400.1506207186915 386.5909092390833 397.63641610348475 387.7272729069733 397.7216433785765C388.8636365748634 397.8068706536683 389.31818204201943 401.0540298346641 390.4545457099095 401.1989162023201C391.59090937779956 401.3438025699761 392.0454548449556 398.3915297607977 393.18181851284567 398.41709794332525C394.3181821807357 398.4426661258528 394.7727276478917 401.24493893086964 395.9090913157818 401.32164347845224C397.04545498367185 401.3983480260348 397.5000004508279 398.947211594396 398.63636411871795 398.7852797717216C399.772727786608 398.6233479490473 400.227273253764 400.3994843619595 401.36363692165406 400.5443707296154C402.50000058954413 400.6892570972714 402.95454605670017 399.2506206937226 404.09090972459023 399.48073433647033C405.2272733924803 399.7108479792181 405.68181885963634 401.82789349249725 406.81818252752635 401.64891621480456C407.95454619541647 401.4699389371119 408.40909166257245 398.4938024909078 409.5454553304625 398.6216434035455C410.6818189983526 398.7494843161831 411.1363644655086 402.02391622520827 412.2727281333987 402.2625525954652C413.4090918012887 402.5011889657221 414.4318191023898 400.28698435883837 415.0000009363348 399.76709798077866 " transform="rotate(6.25, 400, 400)"></path></g></svg>